<svg width="56" height="56" viewBox="0 0 56 56" fill="none" xmlns="http://www.w3.org/2000/svg">
<g id="Frame" clip-path="url(#clip0_16_33)">
<path id="Vector" d="M30.625 28C30.625 28.5192 30.471 29.0267 30.1826 29.4584C29.8942 29.8901 29.4842 30.2265 29.0045 30.4252C28.5249 30.6239 27.9971 30.6759 27.4879 30.5746C26.9787 30.4733 26.511 30.2233 26.1438 29.8562C25.7767 29.489 25.5267 29.0213 25.4254 28.5121C25.3242 28.0029 25.3761 27.4751 25.5748 26.9955C25.7735 26.5158 26.11 26.1058 26.5416 25.8174C26.9733 25.529 27.4808 25.375 28 25.375C28.6962 25.375 29.3639 25.6516 29.8562 26.1438C30.3484 26.6361 30.625 27.3038 30.625 28ZM42 25.375C41.4808 25.375 40.9733 25.529 40.5416 25.8174C40.1099 26.1058 39.7735 26.5158 39.5748 26.9955C39.3761 27.4751 39.3242 28.0029 39.4254 28.5121C39.5267 29.0213 39.7767 29.489 40.1438 29.8562C40.511 30.2233 40.9787 30.4733 41.4879 30.5746C41.9971 30.6759 42.5249 30.6239 43.0045 30.4252C43.4842 30.2265 43.8942 29.8901 44.1826 29.4584C44.471 29.0267 44.625 28.5192 44.625 28C44.625 27.3038 44.3484 26.6361 43.8562 26.1438C43.3639 25.6516 42.6962 25.375 42 25.375ZM14 25.375C13.4808 25.375 12.9733 25.529 12.5416 25.8174C12.11 26.1058 11.7735 26.5158 11.5748 26.9955C11.3761 27.4751 11.3242 28.0029 11.4254 28.5121C11.5267 29.0213 11.7767 29.489 12.1438 29.8562C12.511 30.2233 12.9787 30.4733 13.4879 30.5746C13.9971 30.6759 14.5249 30.6239 15.0045 30.4252C15.4842 30.2265 15.8942 29.8901 16.1826 29.4584C16.471 29.0267 16.625 28.5192 16.625 28C16.625 27.3038 16.3484 26.6361 15.8562 26.1438C15.3639 25.6516 14.6962 25.375 14 25.375Z" fill="white"/>
</g>
<defs>
<clipPath id="clip0_16_33">
<rect width="56" height="56" fill="white"/>
</clipPath>
</defs>
</svg>
