<svg width="30" height="31" viewBox="0 0 30 31" fill="none" xmlns="http://www.w3.org/2000/svg">
<g id="Layer_1">
<g id="Group">
<g id="Icon-Share-Google">
<path id="Fill-61" d="M7.40625 19.2969C5.34375 19.2969 3.70312 17.6563 3.70312 15.5938C3.70312 13.5313 5.34375 11.8906 7.40625 11.8906C9.46875 11.8906 11.1094 13.5313 11.1094 15.5938C11.1094 17.6094 9.46875 19.2969 7.40625 19.2969ZM7.40625 13.25C6.14062 13.25 5.10938 14.2813 5.10938 15.5469C5.10938 16.8125 6.14062 17.8438 7.40625 17.8438C8.67187 17.8438 9.70313 16.8125 9.70313 15.5469C9.70313 14.3281 8.67187 13.25 7.40625 13.25Z" fill="white"/>
<path id="Fill-62" d="M22.4531 11.75C20.3906 11.75 18.75 10.1094 18.75 8.04688C18.75 5.98438 20.3906 4.34376 22.4531 4.34376C24.5156 4.34376 26.1562 5.98438 26.1562 8.04688C26.1562 10.1094 24.4687 11.75 22.4531 11.75ZM22.4531 5.75001C21.1875 5.75001 20.1562 6.78125 20.1562 8.04688C20.1562 9.3125 21.1875 10.3438 22.4531 10.3438C23.7187 10.3438 24.75 9.3125 24.75 8.04688C24.75 6.78125 23.7187 5.75001 22.4531 5.75001Z" fill="white"/>
<path id="Fill-63" d="M22.4531 26.7969C20.3906 26.7969 18.75 25.1563 18.75 23.0938C18.75 21.0313 20.3906 19.3906 22.4531 19.3906C24.5156 19.3906 26.1562 21.0313 26.1562 23.0938C26.1562 25.1563 24.4687 26.7969 22.4531 26.7969ZM22.4531 20.7969C21.1875 20.7969 20.1562 21.8281 20.1562 23.0938C20.1562 24.3594 21.1875 25.3906 22.4531 25.3906C23.7187 25.3906 24.75 24.3594 24.75 23.0938C24.75 21.8281 23.7187 20.7969 22.4531 20.7969Z" fill="white"/>
<path id="Fill-64" d="M19.4062 22.4375L9.75 17.6094L10.4063 16.25L20.1094 21.0781L19.4062 22.4375Z" fill="white"/>
<path id="Fill-65" d="M10.4063 14.8906L9.75 13.5781L19.4062 8.75001L20.1094 10.0625L10.4063 14.8906Z" fill="white"/>
</g>
</g>
</g>
</svg>
