<svg width="34" height="7" viewBox="0 0 34 7" fill="none" xmlns="http://www.w3.org/2000/svg">
<path id="Vector" d="M19.25 3.5C19.25 4.01918 19.096 4.52669 18.8076 4.95837C18.5192 5.39005 18.1092 5.7265 17.6295 5.92518C17.1499 6.12386 16.6221 6.17585 16.1129 6.07456C15.6037 5.97328 15.136 5.72327 14.7688 5.35616C14.4017 4.98904 14.1517 4.52131 14.0504 4.01211C13.9492 3.50291 14.0011 2.97511 14.1998 2.49546C14.3985 2.0158 14.735 1.60583 15.1666 1.31739C15.5983 1.02895 16.1058 0.875 16.625 0.875C17.3212 0.875 17.9889 1.15156 18.4812 1.64384C18.9734 2.13613 19.25 2.80381 19.25 3.5ZM30.625 0.875C30.1058 0.875 29.5983 1.02895 29.1666 1.31739C28.7349 1.60583 28.3985 2.0158 28.1998 2.49546C28.0011 2.97511 27.9492 3.50291 28.0504 4.01211C28.1517 4.52131 28.4017 4.98904 28.7688 5.35616C29.136 5.72327 29.6037 5.97328 30.1129 6.07456C30.6221 6.17585 31.1499 6.12386 31.6295 5.92518C32.1092 5.7265 32.5192 5.39005 32.8076 4.95837C33.096 4.52669 33.25 4.01918 33.25 3.5C33.25 2.80381 32.9734 2.13613 32.4812 1.64384C31.9889 1.15156 31.3212 0.875 30.625 0.875ZM2.625 0.875C2.10583 0.875 1.59831 1.02895 1.16663 1.31739C0.73495 1.60583 0.398497 2.0158 0.199817 2.49546C0.00113738 2.97511 -0.0508464 3.50291 0.0504398 4.01211C0.151726 4.52131 0.401733 4.98904 0.768846 5.35616C1.13596 5.72327 1.60369 5.97328 2.11289 6.07456C2.62209 6.17585 3.14989 6.12386 3.62955 5.92518C4.1092 5.7265 4.51917 5.39005 4.80761 4.95837C5.09605 4.52669 5.25 4.01918 5.25 3.5C5.25 2.80381 4.97344 2.13613 4.48116 1.64384C3.98887 1.15156 3.32119 0.875 2.625 0.875Z" fill="white"/>
</svg>
