<svg width="38" height="39" viewBox="0 0 38 39" fill="none" xmlns="http://www.w3.org/2000/svg">
<g id="Frame">
<path id="Vector" d="M14.25 25.4375C14.25 25.1226 14.3751 24.8205 14.5978 24.5978C14.8205 24.3751 15.1226 24.25 15.4375 24.25H22.5625C22.8774 24.25 23.1795 24.3751 23.4022 24.5978C23.6249 24.8205 23.75 25.1226 23.75 25.4375C23.75 25.7524 23.6249 26.0545 23.4022 26.2772C23.1795 26.4999 22.8774 26.625 22.5625 26.625H15.4375C15.1226 26.625 14.8205 26.4999 14.5978 26.2772C14.3751 26.0545 14.25 25.7524 14.25 25.4375ZM9.5 18.3125C9.5 17.9976 9.62511 17.6955 9.84781 17.4728C10.0705 17.2501 10.3726 17.125 10.6875 17.125H27.3125C27.6274 17.125 27.9295 17.2501 28.1522 17.4728C28.3749 17.6955 28.5 17.9976 28.5 18.3125C28.5 18.6274 28.3749 18.9295 28.1522 19.1522C27.9295 19.3749 27.6274 19.5 27.3125 19.5H10.6875C10.3726 19.5 10.0705 19.3749 9.84781 19.1522C9.62511 18.9295 9.5 18.6274 9.5 18.3125ZM4.75 11.1875C4.75 10.8726 4.87511 10.5705 5.09781 10.3478C5.32051 10.1251 5.62256 10 5.9375 10H32.0625C32.3774 10 32.6795 10.1251 32.9022 10.3478C33.1249 10.5705 33.25 10.8726 33.25 11.1875C33.25 11.5024 33.1249 11.8045 32.9022 12.0272C32.6795 12.2499 32.3774 12.375 32.0625 12.375H5.9375C5.62256 12.375 5.32051 12.2499 5.09781 12.0272C4.87511 11.8045 4.75 11.5024 4.75 11.1875Z" fill="white"/>
</g>
</svg>
